<?xml version="1.0" encoding="UTF-8" standalone="no"?>
<!-- Created with Inkscape (http://www.inkscape.org/) -->

<svg
   width="6.8150001in"
   height="9.8599997in"
   viewBox="0 0 173.101 250.44399"
   version="1.1"
   id="svg5"
   inkscape:version="1.2.2 (b0a8486541, 2022-12-01)"
   sodipodi:docname="biscuit.svg"
   xml:space="preserve"
   xmlns:inkscape="http://www.inkscape.org/namespaces/inkscape"
   xmlns:sodipodi="http://sodipodi.sourceforge.net/DTD/sodipodi-0.dtd"
   xmlns:xlink="http://www.w3.org/1999/xlink"
   xmlns="http://www.w3.org/2000/svg"
   xmlns:svg="http://www.w3.org/2000/svg"><sodipodi:namedview
     id="namedview7"
     pagecolor="#ffffff"
     bordercolor="#000000"
     borderopacity="0.25"
     inkscape:showpageshadow="2"
     inkscape:pageopacity="0.0"
     inkscape:pagecheckerboard="0"
     inkscape:deskcolor="#d1d1d1"
     inkscape:document-units="mm"
     showgrid="false"
     showguides="true"
     inkscape:zoom="0.74742566"
     inkscape:cx="360.57098"
     inkscape:cy="428.13622"
     inkscape:window-width="1920"
     inkscape:window-height="1011"
     inkscape:window-x="0"
     inkscape:window-y="32"
     inkscape:window-maximized="1"
     inkscape:current-layer="layer1"><sodipodi:guide
       position="12.7,218.93862"
       orientation="-1,0"
       id="guide132"
       inkscape:locked="false"
       inkscape:label=""
       inkscape:color="rgb(0,134,229)" /><sodipodi:guide
       position="46.019071,247.26899"
       orientation="0,1"
       id="guide184"
       inkscape:locked="false"
       inkscape:label=""
       inkscape:color="rgb(0,134,229)" /><sodipodi:guide
       position="67.966628,3.1749912"
       orientation="0,1"
       id="guide186"
       inkscape:locked="false"
       inkscape:label=""
       inkscape:color="rgb(0,134,229)" /><sodipodi:guide
       position="169.926,179.64541"
       orientation="-1,0"
       id="guide188"
       inkscape:locked="false"
       inkscape:label=""
       inkscape:color="rgb(0,134,229)" /><sodipodi:guide
       position="46.019071,234.56899"
       orientation="0,1"
       id="guide194"
       inkscape:label=""
       inkscape:locked="false"
       inkscape:color="rgb(0,134,229)" /><sodipodi:guide
       position="157.226,179.64541"
       orientation="-1,0"
       id="guide196"
       inkscape:label=""
       inkscape:locked="false"
       inkscape:color="rgb(0,134,229)" /><sodipodi:guide
       position="67.966628,15.874991"
       orientation="0,1"
       id="guide198"
       inkscape:label=""
       inkscape:locked="false"
       inkscape:color="rgb(0,134,229)" /></sodipodi:namedview><defs
     id="defs2"><rect
       x="116.39954"
       y="111.04783"
       width="116.5858"
       height="88.424393"
       id="rect2" /><rect
       x="609.42517"
       y="159.21317"
       width="167.24071"
       height="118.40643"
       id="rect1" /><rect
       x="619.45959"
       y="120.41331"
       width="137.13739"
       height="66.896286"
       id="rect3572" /><rect
       x="652.90778"
       y="159.88213"
       width="155.19939"
       height="131.11671"
       id="rect3566" /><rect
       x="606.74933"
       y="145.16495"
       width="169.91656"
       height="99.0065"
       id="rect3560" /><pattern
       patternTransform="matrix(9.72775,0,0,9.72775,87,-167)"
       patternUnits="userSpaceOnUse"
       x="0"
       y="0"
       width="28.7993"
       height="28.8008"
       id="pattern587"><g
         transform="scale(0.1)"
         id="g585"><g
           id="g583"><g
             clip-path="url(#clipPath553)"
             id="g581"><path
               d="m 287.988,-28.7969 c 15.899,0 28.809,12.8985 28.809,28.7969 0,15.918 -12.91,28.8008 -28.809,28.8008 -15.898,0 -28.789,-12.8828 -28.789,-28.8008 0,-15.8984 12.891,-28.7969 28.789,-28.7969"
               style="fill:#272525;fill-opacity:1;fill-rule:nonzero;stroke:none"
               id="path555" /><path
               d="m 144,-28.7969 c 15.895,0 28.805,12.8985 28.805,28.7969 0,15.918 -12.91,28.8008 -28.805,28.8008 -15.898,0 -28.789,-12.8828 -28.789,-28.8008 0,-15.8984 12.891,-28.7969 28.789,-28.7969"
               style="fill:#272525;fill-opacity:1;fill-rule:nonzero;stroke:none"
               id="path557" /><path
               d="m 287.988,115.195 c 15.899,0 28.809,12.903 28.809,28.809 0,15.906 -12.91,28.801 -28.809,28.801 -15.898,0 -28.789,-12.895 -28.789,-28.801 0,-15.906 12.891,-28.809 28.789,-28.809"
               style="fill:#272525;fill-opacity:1;fill-rule:nonzero;stroke:none"
               id="path559" /><path
               d="m 144,115.195 c 15.895,0 28.805,12.903 28.805,28.809 0,15.906 -12.91,28.801 -28.805,28.801 -15.898,0 -28.789,-12.895 -28.789,-28.801 0,-15.906 12.891,-28.809 28.789,-28.809"
               style="fill:#272525;fill-opacity:1;fill-rule:nonzero;stroke:none"
               id="path561" /><path
               d="m 72.0039,43.2031 c 15.9024,0 28.8121,12.8985 28.8121,28.8008 0,15.9063 -12.9097,28.7971 -28.8121,28.7971 -15.9101,0 -28.8008,-12.8908 -28.8008,-28.7971 0,-15.9023 12.8907,-28.8008 28.8008,-28.8008"
               style="fill:#272525;fill-opacity:1;fill-rule:nonzero;stroke:none"
               id="path563" /><path
               d="m 215.996,43.2031 c 15.899,0 28.789,12.8985 28.789,28.8008 0,15.9063 -12.89,28.7971 -28.789,28.7971 -15.918,0 -28.808,-12.8908 -28.808,-28.7971 0,-15.9023 12.89,-28.8008 28.808,-28.8008"
               style="fill:#272525;fill-opacity:1;fill-rule:nonzero;stroke:none"
               id="path565" /><path
               d="m 72.0039,187.207 c 15.9024,0 28.8121,12.891 28.8121,28.801 0,15.894 -12.9097,28.797 -28.8121,28.797 -15.9101,0 -28.8008,-12.903 -28.8008,-28.797 0,-15.91 12.8907,-28.801 28.8008,-28.801"
               style="fill:#272525;fill-opacity:1;fill-rule:nonzero;stroke:none"
               id="path567" /><path
               d="m 215.996,187.207 c 15.899,0 28.789,12.891 28.789,28.801 0,15.894 -12.89,28.797 -28.789,28.797 -15.918,0 -28.808,-12.903 -28.808,-28.797 0,-15.91 12.89,-28.801 28.808,-28.801"
               style="fill:#272525;fill-opacity:1;fill-rule:nonzero;stroke:none"
               id="path569" /><path
               d="M -0.00390625,-28.7969 C 15.8945,-28.7969 28.8047,-15.8984 28.8047,0 28.8047,15.918 15.8945,28.8008 -0.00390625,28.8008 -15.9023,28.8008 -28.793,15.918 -28.793,0 c 0,-15.8984 12.8907,-28.7969 28.78909375,-28.7969"
               style="fill:#272525;fill-opacity:1;fill-rule:nonzero;stroke:none"
               id="path571" /><path
               d="M -0.00390625,115.195 C 15.8945,115.195 28.8047,128.098 28.8047,144.004 c 0,15.906 -12.9102,28.801 -28.80860625,28.801 C -15.9023,172.805 -28.793,159.91 -28.793,144.004 c 0,-15.906 12.8907,-28.809 28.78909375,-28.809"
               style="fill:#272525;fill-opacity:1;fill-rule:nonzero;stroke:none"
               id="path573" /><path
               d="m 287.988,259.211 c 15.899,0 28.809,12.898 28.809,28.797 0,15.918 -12.91,28.797 -28.809,28.797 -15.898,0 -28.789,-12.879 -28.789,-28.797 0,-15.899 12.891,-28.797 28.789,-28.797"
               style="fill:#272525;fill-opacity:1;fill-rule:nonzero;stroke:none"
               id="path575" /><path
               d="m 144,259.211 c 15.895,0 28.805,12.898 28.805,28.797 0,15.918 -12.91,28.797 -28.805,28.797 -15.898,0 -28.789,-12.879 -28.789,-28.797 0,-15.899 12.891,-28.797 28.789,-28.797"
               style="fill:#272525;fill-opacity:1;fill-rule:nonzero;stroke:none"
               id="path577" /><path
               d="M -0.00390625,259.211 C 15.8945,259.211 28.8047,272.109 28.8047,288.008 c 0,15.918 -12.9102,28.797 -28.80860625,28.797 C -15.9023,316.805 -28.793,303.926 -28.793,288.008 c 0,-15.899 12.8907,-28.797 28.78909375,-28.797"
               style="fill:#272525;fill-opacity:1;fill-rule:nonzero;stroke:none"
               id="path579" /></g></g></g></pattern><clipPath
       clipPathUnits="userSpaceOnUse"
       id="clipPath553"><path
         d="M 0,289 H 288 V 0 H 0 Z"
         id="path551" /></clipPath><rect
       x="116.39954"
       y="111.04783"
       width="119.07537"
       height="70.241096"
       id="rect2-7" /><rect
       x="116.39954"
       y="111.04783"
       width="119.07537"
       height="70.241096"
       id="rect2-7-9" /><rect
       x="116.39954"
       y="111.04783"
       width="119.07537"
       height="70.241096"
       id="rect2-7-9-8" /><rect
       x="116.39954"
       y="111.04783"
       width="119.07537"
       height="70.241096"
       id="rect2-7-9-1" /><rect
       x="116.39954"
       y="111.04783"
       width="119.07537"
       height="70.241096"
       id="rect2-7-9-1-3" /><rect
       x="116.39954"
       y="111.04783"
       width="119.07537"
       height="70.241096"
       id="rect2-7-9-4" /><rect
       x="116.39954"
       y="111.04783"
       width="119.07537"
       height="70.241096"
       id="rect2-7-9-1-3-9" /><rect
       x="116.39954"
       y="111.04783"
       width="119.07537"
       height="70.241096"
       id="rect2-7-9-1-3-9-6" /><rect
       x="116.39954"
       y="111.04783"
       width="140.66846"
       height="95.114021"
       id="rect2-1" /><rect
       x="116.39954"
       y="111.04783"
       width="140.66846"
       height="95.114021"
       id="rect2-1-7" /><rect
       x="116.39954"
       y="111.04783"
       width="140.66846"
       height="95.114021"
       id="rect2-1-7-6" /><rect
       x="116.39954"
       y="111.04783"
       width="140.66846"
       height="95.114021"
       id="rect2-1-7-7" /><rect
       x="116.39954"
       y="111.04783"
       width="108.55824"
       height="49.624546"
       id="rect2-1-7-7-3" /><rect
       x="116.39954"
       y="111.04783"
       width="108.55824"
       height="49.624546"
       id="rect2-1-7-7-3-6" /><rect
       x="116.39954"
       y="111.04783"
       width="117.25476"
       height="65.679657"
       id="rect2-1-7-7-3-6-1" /><rect
       x="116.39954"
       y="111.04783"
       width="115.24787"
       height="56.983135"
       id="rect2-1-7-7-3-6-1-3" /><rect
       x="116.39954"
       y="111.04783"
       width="117.25476"
       height="65.679657"
       id="rect2-1-7-7-3-6-1-9" /><rect
       x="116.39954"
       y="111.04783"
       width="117.25476"
       height="65.679657"
       id="rect2-1-7-7-3-6-1-31" /><rect
       x="116.39954"
       y="111.04783"
       width="117.25476"
       height="65.679657"
       id="rect2-1-7-7-3-6-1-31-0" /><rect
       x="116.39954"
       y="111.04783"
       width="140.66846"
       height="95.114021"
       id="rect2-1-7-1" /><rect
       x="116.39954"
       y="111.04783"
       width="140.66846"
       height="95.114021"
       id="rect2-1-7-1-2" /><rect
       x="116.39954"
       y="111.04783"
       width="101.88015"
       height="44.973034"
       id="rect2-1-7-1-2-4" /></defs><g
     inkscape:label="Layer 1"
     inkscape:groupmode="layer"
     id="layer1"><image
       width="173.101"
       height="259.65152"
       preserveAspectRatio="none"
       xlink:href="images/biscuits2.png"
       id="image408"
       x="0"
       y="-9.2075281" /></g></svg>
